{"title":"Revolution OS [2001] x264","uid":12142316,"size":596822957,"categoryP":"video","categoryS":"movies","magnet":"?xt=urn:btih:488714b6972d09a3191eb8ff63adbb7b4ce7337a&amp;dn=Revolution+OS+%5B2001%5D+x264&amp;tr=udp%3A%2F%2Ftracker.openbittorrent.com%3A80&amp;tr=udp%3A%2F%2Fopen.demonii.com%3A1337&amp;tr=udp%3A%2F%2Ftracker.coppersurfer.tk%3A6969&amp;tr=udp%3A%2F%2Fexodus.desync.com%3A6969","seeders":1,"leechers":0,"uploader":null,"files":1,"time":1437368541,"description":"Format                      : MPEG-4\nFormat profile              : Base Media / Version 2\nCodec ID                    : mp42\nFile size                   : 569 MiB\nDuration                    : 1h 25mn\nOverall bit rate mode       : Variable\nOverall bit rate            : 935 Kbps\n\nVideo\nID                          : 1\nFormat                      : AVC\nFormat/Info                 : Advanced Video Codec\nFormat profile              : High@L3\nFormat settings, CABAC      : Yes\nFormat settings, ReFrames   : 4 frames\nCodec ID                    : avc1\nCodec ID/Info               : Advanced Video Coding\nDuration                    : 1h 25mn\nBit rate                    : 800 Kbps\nWidth                       : 720 pixels\nHeight                      : 480 pixels\nDisplay aspect ratio        : 4:3\nOriginal display aspect rat : 4:3\nFrame rate mode             : Variable\nFrame rate                  : 24.154 fps\nMinimum frame rate          : 19.978 fps\nMaximum frame rate          : 29.970 fps\nColor space                 : YUV\nChroma subsampling          : 4:2:0\nBit depth                   : 8 bits\nScan type                   : Progressive\nBits/(Pixel*Frame)          : 0.096\nStream size                 : 487 MiB (86%)\nWriting library             : x264 core 142 r2479 dd79a61\nEncoding settings           : cabac=1 / ref=3 / deblock=1:0:0 / analyse=0x3:0x113 / me=hex / subme=7 / psy=1 / psy_rd=1.00:0.00 / mixed_ref=1 / me_range=16 / chroma_me=1 / trellis=1 / 8x8dct=1 / cqm=0 / deadzone=21,11 / fast_pskip=1 / chroma_qp_offset=-2 / threads=6 / lookahead_threads=1 / sliced_threads=0 / nr=0 / decimate=1 / interlaced=0 / bluray_compat=0 / constrained_intra=0 / bframes=3 / b_pyramid=2 / b_adapt=1 / b_bias=0 / direct=1 / weightb=1 / open_gop=0 / weightp=2 / keyint=240 / keyint_min=24 / scenecut=40 / intra_refresh=0 / rc_lookahead=40 / rc=2pass / mbtree=1 / bitrate=800 / ratetol=1.0 / qcomp=0.60 / qpmin=0 / qpmax=69 / qpstep=4 / cplxblur=20.0 / qblur=0.5 / ip_ratio=1.40 / aq=1:1.00\nColor range                 : Limited\nColor primaries             : BT.601 NTSC\nTransfer characteristics    : BT.709\nMatrix coefficients         : BT.601\n\nAudio\nID                          : 2\nFormat                      : AAC\nFormat/Info                 : Advanced Audio Codec\nFormat profile              : LC\nCodec ID                    : 40\nDuration                    : 1h 25mn\nBit rate mode               : Variable\nBit rate                    : 128 Kbps\nChannel(s)                  : 2 channels\nChannel positions           : Front: L R\nSampling rate               : 48.0 KHz\nCompression mode            : Lossy\nStream size                 : 77.9 MiB (14%)\nTitle                       : Stereo / Stereo\n\nMenu\nID                          : 3\nCodec ID                    : text\nDuration                    : 1h 25mn\nLanguage                    : English\n00:00:00.000                : Chapter 1\n00:01:51.094                : Chapter 2\n00:03:39.619                : Chapter 3\n00:06:35.579                : Chapter 4\n00:09:19.492                : Chapter 5\n00:12:17.637                : Chapter 6\n00:12:44.948                : Chapter 7\n00:15:06.089                : Chapter 8\n00:19:20.543                : Chapter 9\n00:22:36.839                : Chapter 10\n00:26:22.564                : Chapter 11\n00:31:57.382                : Chapter 12\n00:34:48.587                : Chapter 13\n00:37:05.407                : Chapter 14\n00:38:21.716                : Chapter 15\n00:39:59.247                : Chapter 16\n00:45:42.523                : Chapter 17\n00:49:46.183                : Chapter 18\n00:53:03.430                : Chapter 19\n00:56:02.376                : Chapter 20\n00:58:19.196                : Chapter 21\n00:59:15.168                : Chapter 22\n01:02:41.875                : Chapter 23\n01:06:04.477                : Chapter 24\n01:09:33.086                : Chapter 25\n01:11:41.214                : Chapter 26\n01:15:28.474                : Chapter 27\n01:16:06.512                : Chapter 28\n01:20:00.296                : Chapter 29\n01:20:39.835                : Chapter 30\n01:21:20.776                : Chapter 31\n01:24:03.572                : Chapter 32\nBit rate mode               : VBR","torrent":{"xt":"urn:btih:488714b6972d09a3191eb8ff63adbb7b4ce7337a","amp;dn":"Revolution+OS+%5B2001%5D+x264","amp;tr":["udp%3A%2F%2Ftracker.openbittorrent.com%3A80","udp%3A%2F%2Fopen.demonii.com%3A1337","udp%3A%2F%2Ftracker.coppersurfer.tk%3A6969","udp%3A%2F%2Fexodus.desync.com%3A6969"],"infoHash":"488714b6972d09a3191eb8ff63adbb7b4ce7337a","infoHashBuffer":{"type":"Buffer","data":[72,135,20,182,151,45,9,163,25,30,184,255,99,173,187,123,76,231,51,122]},"announce":[],"urlList":[]}}